<svg id="Layer_1" data-name="Layer 1" xmlns="http://www.w3.org/2000/svg" viewBox="0 0 63.1 61"><defs><style>.cls-1{fill:#ff3343;}</style></defs><title>branding</title><path class="cls-1" d="M398.91,332.49,387.1,320.58a2.12,2.12,0,0,0-.68-.45,2.25,2.25,0,0,0-.81-.16,2.17,2.17,0,0,0-1.47.61l-29.87,29.77a2.1,2.1,0,0,0,0,3l11.91,11.91a2.1,2.1,0,0,0,3,0l5.95-6L393,341.41l6-6a2.13,2.13,0,0,0,.61-1.49,2.11,2.11,0,0,0-.61-1.48ZM391.46,337,390,335.46a2.1,2.1,0,0,0-1.49-.62,2.07,2.07,0,0,0-1.48.62,2,2,0,0,0-.46.68,2.13,2.13,0,0,0,0,1.62,2.1,2.1,0,0,0,.46.68l1.49,1.5-3,3-4.46-4.46a2.11,2.11,0,0,0-3,3l4.46,4.46-3,3-1.47-1.49a2.12,2.12,0,0,0-1.49-.62,2.16,2.16,0,0,0-1.5.62,2.14,2.14,0,0,0,0,3l1.5,1.47-3,3-4.48-4.46a2.1,2.1,0,0,0-3,0,2.08,2.08,0,0,0,0,3l4.45,4.46-3,3-8.94-8.94L385.51,325l8.94,8.94Z" transform="translate(-353.66 -319.97)"/><path class="cls-1" d="M376.8,381h37.86a2.08,2.08,0,0,0,2.1-2.1V341a2.08,2.08,0,0,0-2.1-2.1H402a2.11,2.11,0,0,0-1.49.61,2.14,2.14,0,0,0-.62,1.49v23.14H376.8a2.1,2.1,0,0,0-2.11,2.1v12.62a2.1,2.1,0,0,0,2.11,2.1Zm2.1-12.62h4.21v2.11a2.1,2.1,0,1,0,4.2,0v-2.11h4.21v2.11a2.12,2.12,0,0,0,2.1,2.1,2.08,2.08,0,0,0,1.49-.62,2.06,2.06,0,0,0,.62-1.48v-2.11h4.2v2.11a2.11,2.11,0,0,0,4.21,0v-2.11h2.1a2.1,2.1,0,1,0,0-4.2h-2.1v-4.21h2.1a2.11,2.11,0,0,0,0-4.21h-2.1v-4.2h2.1a2.12,2.12,0,0,0,1.49-.62,2.08,2.08,0,0,0,.62-1.49,2.06,2.06,0,0,0-.62-1.48,2.08,2.08,0,0,0-1.49-.62h-2.1v-4.21h8.42v33.66H378.9Z" transform="translate(-353.66 -319.97)"/></svg>