<svg id="Layer_1" data-name="Layer 1" xmlns="http://www.w3.org/2000/svg" viewBox="0 0 162 20"><defs><style>.cls-1{fill:#fff;}</style></defs><title>med-icons</title><path class="cls-1" d="M372.51,410.37v-9.12h3.06l.46-3.56h-3.52v-2.27c0-1,.28-1.73,1.76-1.73h1.88v-3.18a25.14,25.14,0,0,0-2.74-.14c-2.72,0-4.58,1.66-4.58,4.7v2.62h-3.07v3.56h3.07v9.12Z" transform="translate(-365.76 -390.37)"/><path class="cls-1" d="M449.76,393.53a9.29,9.29,0,0,1-2.59.7,4.53,4.53,0,0,0,2-2.51,9.06,9.06,0,0,1-2.87,1.11,4.52,4.52,0,0,0-7.7,4.13,12.74,12.74,0,0,1-9.3-4.74,4.72,4.72,0,0,0-.6,2.29,4.55,4.55,0,0,0,.53,2.14,4.43,4.43,0,0,0,1.47,1.63,4.47,4.47,0,0,1-2.05-.56v0a4.55,4.55,0,0,0,1,2.86,4.49,4.49,0,0,0,2.6,1.56,4.13,4.13,0,0,1-1.21.19,4.78,4.78,0,0,1-.84-.08,4.55,4.55,0,0,0,1.6,2.25,4.49,4.49,0,0,0,2.61.89,9,9,0,0,1-5.57,1.95,8.23,8.23,0,0,1-1.1-.07,12.81,12.81,0,0,0,19.8-10.86v-.59a9.23,9.23,0,0,0,2.2-2.34Z" transform="translate(-365.76 -390.37)"/><path class="cls-1" d="M527.76,397.71a9.66,9.66,0,0,0-1.08-4.8,3.5,3.5,0,0,0-2-1.17,137.25,137.25,0,0,0-19.73,0,3.5,3.5,0,0,0-1.73.86c-1.06,1-1.18,2.62-1.3,4a55.8,55.8,0,0,0,0,7.54,11,11,0,0,0,.36,2.33,3.71,3.71,0,0,0,.83,1.58,3.51,3.51,0,0,0,1.76.91,54.81,54.81,0,0,0,7.68.38c4.14.06,7.76,0,12.05-.33a3.46,3.46,0,0,0,1.81-.9,3,3,0,0,0,.72-1.17,12,12,0,0,0,.61-3.95C527.76,402.34,527.76,398.41,527.76,397.71Zm-15.66,6v-7.2l7,3.62C517.13,401.18,514.54,402.39,512.1,403.69Z" transform="translate(-365.76 -390.37)"/></svg>