<svg id="Layer_1" data-name="Layer 1" xmlns="http://www.w3.org/2000/svg" viewBox="0 0 49 61"><defs><style>.cls-1{fill:#fff;}</style></defs><title>product</title><path class="cls-1" d="M452.59,361.68H440.34a3,3,0,0,0-2.16,5.21,3.06,3.06,0,0,0,2.16.89h12.25a3,3,0,0,0,2.17-5.2A3,3,0,0,0,452.59,361.68Zm12.25-30.5h-3.61a9.11,9.11,0,0,0-3.35-4.41,9.24,9.24,0,0,0-5.29-1.69h-6.12a9.27,9.27,0,0,0-5.29,1.69,9.11,9.11,0,0,0-3.35,4.41h-3.61a9.17,9.17,0,0,0-9.19,9.15v36.6a9.17,9.17,0,0,0,9.19,9.15h30.62a9.17,9.17,0,0,0,9.19-9.15v-36.6a9.17,9.17,0,0,0-9.19-9.15Zm-21.43,3.05a3,3,0,0,1,.89-2.15,3.07,3.07,0,0,1,2.17-.9h6.12a3.07,3.07,0,0,1,3.07,3.05v3H443.41Zm24.5,42.7a3.06,3.06,0,0,1-3.07,3.05H434.22a3.1,3.1,0,0,1-2.17-.89,3.06,3.06,0,0,1-.89-2.16v-36.6a3,3,0,0,1,.89-2.15,3.07,3.07,0,0,1,2.17-.9h3.06v3.05a3,3,0,0,0,.9,2.16,3.06,3.06,0,0,0,2.16.89h18.38a3.06,3.06,0,0,0,2.16-.89,3,3,0,0,0,.9-2.16v-3.05h3.06a3.07,3.07,0,0,1,3.07,3.05Zm-9.19-27.45H440.34a3,3,0,0,0-2.16,5.21,3.06,3.06,0,0,0,2.16.89h18.38a3.06,3.06,0,0,0,2.16-.89,3.06,3.06,0,0,0-2.16-5.21Z" transform="translate(-425.03 -325.08)"/></svg>