<svg id="Layer_1" data-name="Layer 1" xmlns="http://www.w3.org/2000/svg" viewBox="0 0 65 70.97"><defs><style>.cls-1{fill:#ff3343;}</style></defs><title>ui</title><path class="cls-1" d="M565.16,323.24a2.73,2.73,0,0,0-.35.47,1.62,1.62,0,0,0-.27.5,1.75,1.75,0,0,0-.18.56,2.78,2.78,0,0,0,.18,1.68,2.64,2.64,0,0,0,.62,1,2.87,2.87,0,0,0,1,.62,2.53,2.53,0,0,0,1.12.23,2.72,2.72,0,0,0,1.12-.21,4.47,4.47,0,0,0,1-.64,2.91,2.91,0,0,0,.63-1,2.78,2.78,0,0,0,.22-1.13,2.53,2.53,0,0,0-.23-1.12,3.28,3.28,0,0,0-.62-1,3,3,0,0,0-1-.64,2.92,2.92,0,0,0-1.13-.22,3,3,0,0,0-1.12.24A2.87,2.87,0,0,0,565.16,323.24ZM553,335.48a6.46,6.46,0,0,0-.5,1.06,2.48,2.48,0,0,0,0,1.15l.17.53.27.53.35.44a3.11,3.11,0,0,0,2.16.86,2.92,2.92,0,0,0,1.13-.22,3,3,0,0,0,1-.64,3.28,3.28,0,0,0,.62-1,3.07,3.07,0,0,0,.21-1.41,2.95,2.95,0,0,0-2.93-2.65,3.16,3.16,0,0,0-2.1.85Zm12.17-.47a2.87,2.87,0,0,0-.62,1,2.92,2.92,0,0,0-.24,1.7l.18.53a2.4,2.4,0,0,0,.27.53,3.08,3.08,0,0,0,.35.44,2.87,2.87,0,0,0,1,.62,2.73,2.73,0,0,0,2.24,0,3.25,3.25,0,0,0,1-.62,3,3,0,0,0,.67-.95,3,3,0,0,0,.24-1.14A2.49,2.49,0,0,0,570,336a3.46,3.46,0,0,0-.62-1,3.22,3.22,0,0,0-1-.61,2.73,2.73,0,0,0-2.24,0A3,3,0,0,0,565.16,335Zm-12.44-8.56a2.92,2.92,0,0,0,.62,1,3.11,3.11,0,0,0,2.1.85,3,3,0,0,0,2.93-2.65,3.07,3.07,0,0,0-.21-1.41,3.28,3.28,0,0,0-.62-1,3,3,0,0,0-1-.64,2.92,2.92,0,0,0-1.13-.22,3.12,3.12,0,0,0-2.1.86,2.93,2.93,0,0,0-.62,3.21Zm12.44-15a3.28,3.28,0,0,0-.62,1,2.93,2.93,0,0,0,.62,3.21,3,3,0,0,0,3.22.62,3.46,3.46,0,0,0,1-.62,2.91,2.91,0,0,0,.63-1,2.74,2.74,0,0,0,.22-1.13,2.53,2.53,0,0,0-.23-1.12,3.28,3.28,0,0,0-.62-1,3,3,0,0,0-1.52-.8,2.91,2.91,0,0,0-1.7.18A2.87,2.87,0,0,0,565.16,311.46Zm-36.31,2.09V337.1a3,3,0,0,0,2.95,2.95h11.82a3,3,0,0,0,3-2.95V313.55a3,3,0,0,0-3-2.95H531.8a3,3,0,0,0-2.95,2.95Zm11.82,2.94v17.67h-5.91V316.49ZM517,307.66V343a8.86,8.86,0,0,0,8.87,8.84h47.27A8.84,8.84,0,0,0,582,343V307.66a8.83,8.83,0,0,0-8.86-8.83H525.9a8.84,8.84,0,0,0-8.87,8.83Zm56.14-2.94a3,3,0,0,1,2.09.86,2.94,2.94,0,0,1,.86,2.08V343a2.94,2.94,0,0,1-3,2.95H525.9a3,3,0,0,1-3-2.95V307.66a2.91,2.91,0,0,1,.87-2.08,3,3,0,0,1,2.09-.86ZM553,311.93a1.62,1.62,0,0,0-.27.5,1.58,1.58,0,0,0-.17.56,2.48,2.48,0,0,0,0,1.15l.17.53.27.53.35.44a3.11,3.11,0,0,0,2.1.85,3,3,0,0,0,2.93-2.65,3.09,3.09,0,0,0-.21-1.41,3.28,3.28,0,0,0-.62-1,3.15,3.15,0,0,0-1-.64,3.11,3.11,0,0,0-1.13-.22,3.17,3.17,0,0,0-2.1.86Z" transform="translate(-517.03 -280.86)"/><path class="cls-1" d="M529.12,281.89a1.74,1.74,0,0,0-.36.56,1.61,1.61,0,0,0-.13.65l.14,10.2a2,2,0,0,0,.14.65,1.64,1.64,0,0,0,.38.55,1.76,1.76,0,0,0,.56.37,1.84,1.84,0,0,0,.66.12l6.81-.09,26.3-.36a1.58,1.58,0,0,0,.65-.14,1.75,1.75,0,0,0,.55-.38l5-5.17a1.67,1.67,0,0,0,.48-1.21,1.71,1.71,0,0,0-.51-1.2l-5.17-5a1.58,1.58,0,0,0-.58-.41,1.67,1.67,0,0,0-.69-.14l-26.24.43-6.76,0a1.86,1.86,0,0,0-.66.14,1.59,1.59,0,0,0-.29.29,1.29,1.29,0,0,0-.16.17Zm33.65,2.44,3.45,3.36-3.35,3.46-23.9.32-.1-6.81Zm-27.29.37.09,6.82-3.4,0-.09-6.79Z" transform="translate(-517.03 -280.86)"/></svg>